<svg xmlns="http://www.w3.org/2000/svg" width="640" height="400" viewBox="0 0 640 400" font-family="ui-monospace, SFMono-Regular, Menlo, monospace" font-size="12">
  <rect width="640" height="400" fill="#3F281B"/>

  <rect x="0" y="0" width="640" height="28" fill="#4C3427"/>
  <text x="12" y="18" fill="#FF5F55" font-size="11" font-weight="bold">Brown Bears</text>

  <rect x="0" y="28" width="44" height="350" fill="#4C3427"/>
  <circle cx="22" cy="52" r="6" fill="#FF5F55"/><circle cx="22" cy="82" r="6" fill="#B58F7A"/><circle cx="22" cy="112" r="6" fill="#B58F7A"/>
  <circle cx="31" cy="46" r="6" fill="#FF5F55"/>
  <text x="31" y="50" fill="#332016" font-size="9" text-anchor="middle">3</text>

  <rect x="44" y="28" width="150" height="350" fill="#2B1910"/>
  <text x="56" y="48" fill="#FF5F55" font-size="10" font-weight="bold">EXPLORER</text>
  <text x="56" y="74" fill="#EEDDD5">src</text><rect x="44" y="81" width="150" height="20" fill="#654736"/><text x="56" y="94" fill="#FF6D62">  index.ts</text><text x="56" y="114" fill="#EEDDD5">  venues.ts</text><text x="56" y="134" fill="#EEDDD5">package.json</text><text x="56" y="154" fill="#EEDDD5">README.md</text>

  <rect x="194" y="28" width="446" height="30" fill="#332016"/>
  <rect x="194" y="28" width="110" height="30" fill="#654736"/>
  <rect x="194" y="28" width="110" height="2" fill="#FF6D62"/>
  <text x="208" y="47" fill="#FF6D62">index.ts</text>
  <text x="322" y="47" fill="#B58F7A">venues.ts</text>

  <text x="224" y="82" fill="#A3816F" text-anchor="end">1</text><text x="238" y="82" fill="#9E7F6A" font-style="italic" xml:space="preserve">// tuition is measured in regret</text><text x="224" y="118" fill="#A3816F" text-anchor="end">3</text><text x="238" y="118" fill="#F6964E" font-weight="bold" xml:space="preserve">import</text><text x="281.32" y="118" fill="#BB9A84" xml:space="preserve"> { </text><text x="302.98" y="118" fill="#50D7C5" font-weight="bold" xml:space="preserve">Stadium</text><text x="353.52000000000004" y="118" fill="#BB9A84" xml:space="preserve"> } </text><text x="375.18000000000006" y="118" fill="#F6964E" font-weight="bold" xml:space="preserve">from</text><text x="404.06000000000006" y="118" fill="#F6F0ED" xml:space="preserve"> </text><text x="411.2800000000001" y="118" fill="#A0D8A0" xml:space="preserve">'./venues'</text><text x="483.4800000000001" y="118" fill="#BB9A84" xml:space="preserve">;</text><text x="224" y="154" fill="#A3816F" text-anchor="end">5</text><text x="238" y="154" fill="#F6964E" font-weight="bold" xml:space="preserve">export</text><text x="281.32" y="154" fill="#F6F0ED" xml:space="preserve"> </text><text x="288.54" y="154" fill="#FF5F55" xml:space="preserve">class</text><text x="324.64000000000004" y="154" fill="#F6F0ED" xml:space="preserve"> </text><text x="331.86000000000007" y="154" fill="#50D7C5" font-weight="bold" xml:space="preserve">Wolverine</text><text x="396.8400000000001" y="154" fill="#F6F0ED" xml:space="preserve"> </text><text x="404.0600000000001" y="154" fill="#FF5F55" xml:space="preserve">extends</text><text x="454.60000000000014" y="154" fill="#F6F0ED" xml:space="preserve"> </text><text x="461.82000000000016" y="154" fill="#50D7C5" font-weight="bold" xml:space="preserve">Stadium</text><text x="512.3600000000001" y="154" fill="#BB9A84" xml:space="preserve"> {</text><text x="224" y="172" fill="#A3816F" text-anchor="end">6</text><text x="238" y="172" fill="#F6F0ED" xml:space="preserve">  </text><text x="252.44" y="172" fill="#FAB281" xml:space="preserve">capacity</text><text x="310.2" y="172" fill="#BB9A84" xml:space="preserve"> = </text><text x="331.86" y="172" fill="#7CC7E2" xml:space="preserve">107601</text><text x="375.18" y="172" fill="#BB9A84" xml:space="preserve">;</text><text x="224" y="190" fill="#A3816F" text-anchor="end">7</text><text x="238" y="190" fill="#F6F0ED" xml:space="preserve">  </text><text x="252.44" y="190" fill="#FAB281" xml:space="preserve">ranked</text><text x="295.76" y="190" fill="#BB9A84" xml:space="preserve"> = </text><text x="317.42" y="190" fill="#C691E9" xml:space="preserve">true</text><text x="346.3" y="190" fill="#BB9A84" xml:space="preserve">;</text><text x="224" y="226" fill="#A3816F" text-anchor="end">9</text><text x="238" y="226" fill="#F6F0ED" xml:space="preserve">  </text><text x="252.44" y="226" fill="#6EB2FE" xml:space="preserve">fightSong</text><text x="317.42" y="226" fill="#BB9A84" xml:space="preserve">(</text><text x="324.64000000000004" y="226" fill="#F6F0ED" xml:space="preserve">verse</text><text x="360.74000000000007" y="226" fill="#BB9A84" xml:space="preserve">) {</text><text x="224" y="244" fill="#A3816F" text-anchor="end">10</text><text x="238" y="244" fill="#F6F0ED" xml:space="preserve">    </text><text x="266.88" y="244" fill="#F6964E" font-weight="bold" xml:space="preserve">if</text><text x="281.32" y="244" fill="#BB9A84" xml:space="preserve"> (</text><text x="295.76" y="244" fill="#BB9A84" xml:space="preserve">!</text><text x="302.98" y="244" fill="#F6F0ED" xml:space="preserve">verse</text><text x="339.08000000000004" y="244" fill="#BB9A84" xml:space="preserve">) </text><text x="353.52000000000004" y="244" fill="#F6964E" font-weight="bold" xml:space="preserve">throw</text><text x="389.62000000000006" y="244" fill="#F6F0ED" xml:space="preserve"> </text><text x="396.8400000000001" y="244" fill="#FF5F55" xml:space="preserve">new</text><text x="418.5000000000001" y="244" fill="#F6F0ED" xml:space="preserve"> </text><text x="425.72000000000014" y="244" fill="#FA55B6" xml:space="preserve">Error</text><text x="461.82000000000016" y="244" fill="#BB9A84" xml:space="preserve">(</text><text x="469.0400000000002" y="244" fill="#A0D8A0" xml:space="preserve">'no verse'</text><text x="541.2400000000002" y="244" fill="#BB9A84" xml:space="preserve">);</text><text x="224" y="262" fill="#A3816F" text-anchor="end">11</text><text x="238" y="262" fill="#F6F0ED" xml:space="preserve">    </text><text x="266.88" y="262" fill="#F6964E" font-weight="bold" xml:space="preserve">return</text><text x="310.2" y="262" fill="#A0D8A0" xml:space="preserve"> `</text><text x="324.64" y="262" fill="#A0D8A0" xml:space="preserve">Hail to the </text><text x="411.28" y="262" fill="#BB9A84" xml:space="preserve">${</text><text x="425.71999999999997" y="262" fill="#F6F0ED" xml:space="preserve">verse</text><text x="461.82" y="262" fill="#BB9A84" xml:space="preserve">}</text><text x="469.04" y="262" fill="#A0D8A0" xml:space="preserve">`</text><text x="476.26000000000005" y="262" fill="#BB9A84" xml:space="preserve">;</text><text x="224" y="280" fill="#A3816F" text-anchor="end">12</text><text x="238" y="280" fill="#BB9A84" xml:space="preserve">  }</text><text x="224" y="298" fill="#A3816F" text-anchor="end">13</text><text x="238" y="298" fill="#BB9A84" xml:space="preserve">}</text>

  <rect x="0" y="378" width="640" height="22" fill="#4C3427"/>
  <text x="12" y="393" fill="#FFFFFF" font-size="10">main*</text>
  <text x="628" y="393" fill="#FFFFFF" font-size="10" text-anchor="end">TypeScript</text>
</svg>
