<svg xmlns="http://www.w3.org/2000/svg" width="640" height="400" viewBox="0 0 640 400" font-family="ui-monospace, SFMono-Regular, Menlo, monospace" font-size="12">
  <rect width="640" height="400" fill="#EEF4FE"/>

  <rect x="0" y="0" width="640" height="28" fill="#011F5B"/>
  <text x="12" y="18" fill="#C63D30" font-size="11" font-weight="bold">Penn Quakers Light</text>

  <rect x="0" y="28" width="44" height="350" fill="#011F5B"/>
  <circle cx="22" cy="52" r="6" fill="#C63D30"/><circle cx="22" cy="82" r="6" fill="#8599BB"/><circle cx="22" cy="112" r="6" fill="#8599BB"/>
  <circle cx="31" cy="46" r="6" fill="#C63D30"/>
  <text x="31" y="50" fill="#FFFFFF" font-size="9" text-anchor="middle">3</text>

  <rect x="44" y="28" width="150" height="350" fill="#E7EDF7"/>
  <text x="56" y="48" fill="#011F5B" font-size="10" font-weight="bold">EXPLORER</text>
  <text x="56" y="74" fill="#282E38">src</text><rect x="44" y="81" width="150" height="20" fill="#CEDAEE"/><text x="56" y="94" fill="#011F5B">  index.ts</text><text x="56" y="114" fill="#282E38">  venues.ts</text><text x="56" y="134" fill="#282E38">package.json</text><text x="56" y="154" fill="#282E38">README.md</text>

  <rect x="194" y="28" width="446" height="30" fill="#000D34"/>
  <rect x="194" y="28" width="110" height="30" fill="#EEF4FE"/>
  <rect x="194" y="28" width="110" height="2" fill="#011F5B"/>
  <text x="208" y="47" fill="#011F5B">index.ts</text>
  <text x="322" y="47" fill="#8599BB">venues.ts</text>

  <text x="224" y="82" fill="#657289" text-anchor="end">1</text><text x="238" y="82" fill="#706E88" font-style="italic" xml:space="preserve">// tuition is measured in regret</text><text x="224" y="118" fill="#657289" text-anchor="end">3</text><text x="238" y="118" fill="#832E00" font-weight="bold" xml:space="preserve">import</text><text x="281.32" y="118" fill="#524F68" xml:space="preserve"> { </text><text x="302.98" y="118" fill="#006057" font-weight="bold" xml:space="preserve">Stadium</text><text x="353.52000000000004" y="118" fill="#524F68" xml:space="preserve"> } </text><text x="375.18000000000006" y="118" fill="#832E00" font-weight="bold" xml:space="preserve">from</text><text x="404.06000000000006" y="118" fill="#212125" xml:space="preserve"> </text><text x="411.2800000000001" y="118" fill="#2F6633" xml:space="preserve">'./venues'</text><text x="483.4800000000001" y="118" fill="#524F68" xml:space="preserve">;</text><text x="224" y="154" fill="#657289" text-anchor="end">5</text><text x="238" y="154" fill="#832E00" font-weight="bold" xml:space="preserve">export</text><text x="281.32" y="154" fill="#212125" xml:space="preserve"> </text><text x="288.54" y="154" fill="#011F5B" xml:space="preserve">class</text><text x="324.64000000000004" y="154" fill="#212125" xml:space="preserve"> </text><text x="331.86000000000007" y="154" fill="#006057" font-weight="bold" xml:space="preserve">Wolverine</text><text x="396.8400000000001" y="154" fill="#212125" xml:space="preserve"> </text><text x="404.0600000000001" y="154" fill="#011F5B" xml:space="preserve">extends</text><text x="454.60000000000014" y="154" fill="#212125" xml:space="preserve"> </text><text x="461.82000000000016" y="154" fill="#006057" font-weight="bold" xml:space="preserve">Stadium</text><text x="512.3600000000001" y="154" fill="#524F68" xml:space="preserve"> {</text><text x="224" y="172" fill="#657289" text-anchor="end">6</text><text x="238" y="172" fill="#212125" xml:space="preserve">  </text><text x="252.44" y="172" fill="#8C4732" xml:space="preserve">capacity</text><text x="310.2" y="172" fill="#524F68" xml:space="preserve"> = </text><text x="331.86" y="172" fill="#003949" xml:space="preserve">107601</text><text x="375.18" y="172" fill="#524F68" xml:space="preserve">;</text><text x="224" y="190" fill="#657289" text-anchor="end">7</text><text x="238" y="190" fill="#212125" xml:space="preserve">  </text><text x="252.44" y="190" fill="#8C4732" xml:space="preserve">ranked</text><text x="295.76" y="190" fill="#524F68" xml:space="preserve"> = </text><text x="317.42" y="190" fill="#6D3A8B" xml:space="preserve">true</text><text x="346.3" y="190" fill="#524F68" xml:space="preserve">;</text><text x="224" y="226" fill="#657289" text-anchor="end">9</text><text x="238" y="226" fill="#212125" xml:space="preserve">  </text><text x="252.44" y="226" fill="#004662" xml:space="preserve">fightSong</text><text x="317.42" y="226" fill="#524F68" xml:space="preserve">(</text><text x="324.64000000000004" y="226" fill="#212125" xml:space="preserve">verse</text><text x="360.74000000000007" y="226" fill="#524F68" xml:space="preserve">) {</text><text x="224" y="244" fill="#657289" text-anchor="end">10</text><text x="238" y="244" fill="#212125" xml:space="preserve">    </text><text x="266.88" y="244" fill="#832E00" font-weight="bold" xml:space="preserve">if</text><text x="281.32" y="244" fill="#524F68" xml:space="preserve"> (</text><text x="295.76" y="244" fill="#524F68" xml:space="preserve">!</text><text x="302.98" y="244" fill="#212125" xml:space="preserve">verse</text><text x="339.08000000000004" y="244" fill="#524F68" xml:space="preserve">) </text><text x="353.52000000000004" y="244" fill="#832E00" font-weight="bold" xml:space="preserve">throw</text><text x="389.62000000000006" y="244" fill="#212125" xml:space="preserve"> </text><text x="396.8400000000001" y="244" fill="#011F5B" xml:space="preserve">new</text><text x="418.5000000000001" y="244" fill="#212125" xml:space="preserve"> </text><text x="425.72000000000014" y="244" fill="#BB061E" xml:space="preserve">Error</text><text x="461.82000000000016" y="244" fill="#524F68" xml:space="preserve">(</text><text x="469.0400000000002" y="244" fill="#2F6633" xml:space="preserve">'no verse'</text><text x="541.2400000000002" y="244" fill="#524F68" xml:space="preserve">);</text><text x="224" y="262" fill="#657289" text-anchor="end">11</text><text x="238" y="262" fill="#212125" xml:space="preserve">    </text><text x="266.88" y="262" fill="#832E00" font-weight="bold" xml:space="preserve">return</text><text x="310.2" y="262" fill="#2F6633" xml:space="preserve"> `</text><text x="324.64" y="262" fill="#2F6633" xml:space="preserve">Hail to the </text><text x="411.28" y="262" fill="#524F68" xml:space="preserve">${</text><text x="425.71999999999997" y="262" fill="#212125" xml:space="preserve">verse</text><text x="461.82" y="262" fill="#524F68" xml:space="preserve">}</text><text x="469.04" y="262" fill="#2F6633" xml:space="preserve">`</text><text x="476.26000000000005" y="262" fill="#524F68" xml:space="preserve">;</text><text x="224" y="280" fill="#657289" text-anchor="end">12</text><text x="238" y="280" fill="#524F68" xml:space="preserve">  }</text><text x="224" y="298" fill="#657289" text-anchor="end">13</text><text x="238" y="298" fill="#524F68" xml:space="preserve">}</text>

  <rect x="0" y="378" width="640" height="22" fill="#011F5B"/>
  <text x="12" y="393" fill="#FFFFFF" font-size="10">main*</text>
  <text x="628" y="393" fill="#FFFFFF" font-size="10" text-anchor="end">TypeScript</text>
</svg>
